<?xml version="1.0" encoding="UTF-8" standalone="no"?>
<svg
   xmlns:dc="http://purl.org/dc/elements/1.1/"
   xmlns:cc="http://creativecommons.org/ns#"
   xmlns:rdf="http://www.w3.org/1999/02/22-rdf-syntax-ns#"
   xmlns:svg="http://www.w3.org/2000/svg"
   xmlns="http://www.w3.org/2000/svg"
   xmlns:sodipodi="http://sodipodi.sourceforge.net/DTD/sodipodi-0.dtd"
   xmlns:inkscape="http://www.inkscape.org/namespaces/inkscape"
   inkscape:version="1.0 (4035a4fb49, 2020-05-01)"
   height="555.95691"
   width="651.7301"
   sodipodi:docname="helpStopFraud2.svg"
   version="1.1"
   viewBox="0 0 651.7301 555.95691"
   data-name="Layer 1"
   id="Layer_1">
  <metadata
     id="metadata22">
    <rdf:RDF>
      <cc:Work
         rdf:about="">
        <dc:format>image/svg+xml</dc:format>
        <dc:type
           rdf:resource="http://purl.org/dc/dcmitype/StillImage" />
        <dc:title>Report-Fraud-Illos</dc:title>
      </cc:Work>
    </rdf:RDF>
  </metadata>
  <sodipodi:namedview
     inkscape:current-layer="g17"
     inkscape:window-maximized="1"
     inkscape:window-y="-9"
     inkscape:window-x="-9"
     inkscape:cy="277.95946"
     inkscape:cx="325.87008"
     inkscape:zoom="0.88486141"
     fit-margin-bottom="0"
     fit-margin-right="0"
     fit-margin-left="0"
     fit-margin-top="0"
     showgrid="false"
     id="namedview20"
     inkscape:window-height="1001"
     inkscape:window-width="1920"
     inkscape:pageshadow="2"
     inkscape:pageopacity="0"
     guidetolerance="10"
     gridtolerance="10"
     objecttolerance="10"
     borderopacity="1"
     bordercolor="#666666"
     pagecolor="#ffffff" />
  <defs
     id="defs7">
    <style
       id="style2">.cls-1{fill:none;}.cls-2{clip-path:url(#clip-path);}.cls-3{fill:#244a73;}.cls-4{fill:#f5a800;}.cls-5{fill:#7ed3f3;}</style>
    <clipPath
       id="clip-path">
      <rect
         id="rect4"
         height="555.95001"
         width="651.73999"
         y="191.02"
         x="214.13"
         class="cls-1" />
    </clipPath>
  </defs>
  <title
     id="title9">Report-Fraud-Illos</title>
  <g
     transform="translate(-214.12992,-191.04054)"
     id="g17"
     clip-path="url(#clip-path)"
     class="cls-2">
    <g
       id="g27">
      <path
         class="cls-3"
         d="m 699.52,263.13 a 139.82,139.82 0 0 1 -146.62,-67.07 13,13 0 0 0 -18.18,-2.33 12.59,12.59 0 0 0 -2.34,2.33 140.33,140.33 0 0 1 -146.58,67.09 12.49,12.49 0 0 0 -15.53,8.41 12.66,12.66 0 0 0 -0.51,3.56 v 117.61 c 0,164.15 167.88,211.83 169.59,212.28 a 12.62,12.62 0 0 0 6.57,0 c 1.71,-0.46 169.59,-48.14 169.59,-212.28 v -117.6 a 12.52,12.52 0 0 0 -12.59,-12.48 13,13 0 0 0 -3.4,0.48"
         id="path11" />
      <path
         class="cls-4"
         d="m 857.91,409.44 a 69.63,69.63 0 0 1 -73,-33.39 6.45,6.45 0 0 0 -10.22,0 69.87,69.87 0 0 1 -73,33.4 6.22,6.22 0 0 0 -7.73,4.19 6,6 0 0 0 -0.25,1.77 V 474 c 0,81.73 83.59,105.48 84.44,105.7 a 6.25,6.25 0 0 0 3.27,0 c 0.85,-0.23 84.44,-24 84.44,-105.7 v -58.59 a 6.24,6.24 0 0 0 -6.27,-6.21 6.45,6.45 0 0 0 -1.69,0.24"
         id="path13" />
      <path
         class="cls-5"
         d="m 439.36,513.17 a 95.52,95.52 0 0 1 -100.15,-45.81 8.84,8.84 0 0 0 -12.41,-1.59 8.6,8.6 0 0 0 -1.6,1.59 95.83,95.83 0 0 1 -100.11,45.82 8.53,8.53 0 0 0 -10.61,5.75 8.35,8.35 0 0 0 -0.35,2.43 v 80.33 c 0,112.12 114.67,144.68 115.83,145 a 8.35,8.35 0 0 0 4.49,0 c 1.16,-0.31 115.83,-32.88 115.83,-145 v -80.33 a 8.55,8.55 0 0 0 -8.6,-8.52 8.29,8.29 0 0 0 -2.32,0.33"
         id="path15" />
    </g>
  </g>
</svg>
