<svg id="Layer_1" data-name="Layer 1" xmlns="http://www.w3.org/2000/svg" xmlns:xlink="http://www.w3.org/1999/xlink" viewBox="0 0 1080 938"><defs><style>.cls-1{fill:none;}.cls-2{clip-path:url(#clip-path);}.cls-3{fill:#244a73;}.cls-4{fill:#f5a800;}.cls-5{fill:#7ed3f3;}</style><clipPath id="clip-path"><rect class="cls-1" x="214.13" y="191.02" width="651.74" height="555.95"/></clipPath></defs><title>Report-Fraud-Illos</title><g class="cls-2"><path class="cls-3" d="M699.52,263.13A139.82,139.82,0,0,1,552.9,196.06a13,13,0,0,0-18.18-2.33,12.59,12.59,0,0,0-2.34,2.33A140.33,140.33,0,0,1,385.8,263.15a12.49,12.49,0,0,0-15.53,8.41,12.66,12.66,0,0,0-.51,3.56V392.73c0,164.15,167.88,211.83,169.59,212.28a12.62,12.62,0,0,0,6.57,0c1.71-.46,169.59-48.14,169.59-212.28V275.13a12.52,12.52,0,0,0-12.59-12.48,13,13,0,0,0-3.4.48"/><path class="cls-4" d="M857.91,409.44a69.63,69.63,0,0,1-73-33.39,6.45,6.45,0,0,0-10.22,0,69.87,69.87,0,0,1-73,33.4,6.22,6.22,0,0,0-7.73,4.19,6,6,0,0,0-.25,1.77V474c0,81.73,83.59,105.48,84.44,105.7a6.25,6.25,0,0,0,3.27,0c.85-.23,84.44-24,84.44-105.7V415.41a6.24,6.24,0,0,0-6.27-6.21,6.45,6.45,0,0,0-1.69.24"/><path class="cls-5" d="M439.36,513.17a95.52,95.52,0,0,1-100.15-45.81,8.84,8.84,0,0,0-12.41-1.59,8.6,8.6,0,0,0-1.6,1.59,95.83,95.83,0,0,1-100.11,45.82,8.53,8.53,0,0,0-10.61,5.75,8.35,8.35,0,0,0-.35,2.43v80.33c0,112.12,114.67,144.68,115.83,145a8.35,8.35,0,0,0,4.49,0c1.16-.31,115.83-32.88,115.83-145V521.36a8.55,8.55,0,0,0-8.6-8.52,8.29,8.29,0,0,0-2.32.33"/></g></svg>