<?xml version="1.0" encoding="utf-8"?>
<!-- Generator: Adobe Illustrator 23.0.3, SVG Export Plug-In . SVG Version: 6.00 Build 0)  -->
<svg version="1.1" id="Layer_1" xmlns="http://www.w3.org/2000/svg" xmlns:xlink="http://www.w3.org/1999/xlink" x="0px" y="0px"
	 viewBox="0 0 1200 467" style="enable-background:new 0 0 1200 467;" xml:space="preserve">
<style type="text/css">
	.st0{fill:#ABE2F7;}
	.st1{fill:#7ED3F3;}
	.st2{fill:#BEE9F9;}
	.st3{fill:#9EDEF6;}
	.st4{fill:#ECA986;}
	.st5{fill:#5C7295;}
	.st6{fill:#DFF4FC;}
	.st7{fill:#C75410;}
	.st8{fill:#FFD28B;}
	.st9{fill:#244974;}
	.st10{fill:#943E17;}
	.st11{fill:#C6CDDA;}
	.st12{fill:#69481C;}
	.st13{fill:#F5A800;}
	.st14{fill:#919EB7;}
	.st15{fill:#FDBD50;}
	.st16{fill:#4E5156;}
</style>
<path class="st0" d="M735-83.5l-130.4-5.2l-94-90.5c-1.3-1.2-2.9-1.9-4.6-1.9c-1.7,0-3.3,0.6-4.6,1.8L407-88.6l-130.4,5.4
	c-3.6,0.1-6.4,3.1-6.4,6.6v199c0,35.1,6.9,68.9,20.5,100.5c13.6,31.5,33.3,59.6,58.7,83.8c35.7,33.9,75.2,51.9,95.5,59.5l58.5,22.1
	c0.8,0.3,1.5,0.4,2.3,0.4c0.8,0,1.6-0.1,2.3-0.4l58.5-22.1c20.3-7.7,59.7-25.6,95.4-59.5c25.4-24.1,45.2-52.3,58.7-83.7
	c13.6-31.6,20.5-65.4,20.5-100.5V-76.8C741.4-80.4,738.6-83.3,735-83.5z M727.2,183.6c-0.7,2.9-1.5,5.7-2.3,8.6
	c-0.9,3-1.8,6.1-2.8,9.1c-0.4,1.2-0.8,2.4-1.2,3.6c-1.8,5.2-3.8,10.3-6,15.4c-0.8,1.9-1.7,3.8-2.5,5.7
	c-6.1,13.2-13.4,25.8-21.7,37.7c-2.4,3.4-4.9,6.8-7.4,10.1c-2.6,3.3-5.2,6.5-8,9.7c-5.5,6.4-11.3,12.5-17.5,18.4
	c-6.5,6.2-13.2,11.9-19.9,17c-3.3,2.6-6.6,5-9.9,7.3c-2.2,1.5-4.4,3-6.6,4.5c-6.5,4.3-12.9,8.2-19,11.6c-6.1,3.4-11.9,6.4-17.2,8.9
	c-2.7,1.3-5.2,2.4-7.7,3.5c-1.6,0.7-3.2,1.4-4.7,2c-3,1.3-5.8,2.4-8.3,3.3l-58.5,22.1l-18.2-6.9L447.3,360c-5-1.9-11.1-4.4-18-7.6
	c-3.5-1.6-7.2-3.4-11-5.4c-1.3-0.7-2.6-1.4-3.9-2.1c-1.6-0.9-3.3-1.8-4.9-2.7c-2-1.1-4.1-2.3-6.2-3.5c-5.2-3.1-10.6-6.5-16.1-10.2
	c-2.2-1.5-4.4-3-6.6-4.6c-1.1-0.8-2.2-1.6-3.3-2.4c-2.2-1.7-4.4-3.4-6.6-5.2c-5.5-4.4-11.1-9.2-16.5-14.4c-4.6-4.4-9.1-9-13.3-13.6
	c-18.4-20.3-33.1-43.1-43.9-68c-2.2-5.1-4.2-10.2-6-15.4c-1.1-3.3-2.2-6.5-3.2-9.8c-1-3.4-2-6.8-2.9-10.2c-0.5-2-1-4-1.5-6.1
	c-0.9-4.1-1.8-8.1-2.5-12.3c-1.1-6.2-2-12.4-2.6-18.7c-0.8-8.4-1.3-16.8-1.3-25.4v-199l127.6-5.3l5.3-0.2l96.2-92.3l48.4,46.6
	l47.5,45.7l45.5,1.8l87.5,3.5v199.3c0,10.7-0.7,21.2-2,31.6c-0.8,6.2-1.8,12.4-3.1,18.6C729,176.3,728.2,180,727.2,183.6z"/>
<path class="st0" d="M660.7-8.1l-84.3-3.3c-1.8-0.1-3.6-0.8-4.9-2.1L510.8-72c-1.4-1.3-3.1-2-4.9-2c-1.8,0-3.5,0.7-4.9,2l-60.8,58.3
	c-1.4,1.3-3.2,2.1-5.2,2.2L351-8c-3.8,0.2-6.7,3.2-6.7,7v126.5c0,25.1,4.9,49.2,14.6,71.6c9.6,22.3,23.8,42.5,42,59.8
	c26.6,25.3,56.3,38.7,71.6,44.5l31,11.7c0.8,0.3,1.6,0.5,2.5,0.5c0.8,0,1.7-0.2,2.5-0.5l31-11.7c15.3-5.8,44.9-19.2,71.6-44.5
	c18.2-17.3,32.4-37.4,42-59.8c9.7-22.4,14.6-46.5,14.6-71.6V-1.1C667.4-4.9,664.4-8,660.7-8.1z M646.4,194.3
	c-4,9.4-8.9,18.4-14.6,26.9c-0.8,1.2-1.6,2.4-2.5,3.6c-1.7,2.4-3.4,4.8-5.3,7.1c-5.4,7-11.5,13.6-18.1,19.9c-1.6,1.5-3.2,3-4.9,4.5
	c-0.8,0.7-1.6,1.4-2.4,2.1c-3.3,2.8-6.6,5.4-9.8,7.9c-0.8,0.6-1.6,1.2-2.5,1.8c-18,13.1-35.4,21.2-46.7,25.7c-0.5,0.2-1,0.4-1.5,0.6
	c-0.5,0.2-1,0.4-1.4,0.5l-31,11.7l-31-11.7c-1.9-0.7-3.9-1.5-6.2-2.4c-1.1-0.5-2.3-1-3.5-1.5c-2.4-1.1-5-2.3-7.8-3.6
	c-1.4-0.7-2.8-1.4-4.2-2.1c-2.9-1.5-5.8-3.1-8.9-4.8c-5.4-3.1-11-6.6-16.7-10.6c-3.3-2.3-6.5-4.7-9.8-7.4
	c-4.1-3.3-8.2-6.8-12.2-10.6c-12.1-11.5-22.3-24.2-30.5-38c-1.5-2.5-2.9-5.1-4.3-7.6c-1.4-2.6-2.7-5.2-3.9-7.8
	c-0.6-1.3-1.2-2.7-1.8-4c-5.8-13.4-9.8-27.5-12-42.1c-0.9-5.8-1.5-11.7-1.8-17.7c-0.1-3-0.2-6-0.2-9V-1l42-1.7l42-1.7
	c2.3-0.1,4.5-0.7,6.4-1.8c1.2-0.6,2.3-1.4,3.3-2.4L505.9-67l60.7,58.5c1,0.9,2,1.7,3.2,2.3c1.2,0.6,2.4,1.1,3.7,1.4
	c0.4,0.1,0.9,0.2,1.3,0.2c0.4,0.1,0.9,0.1,1.3,0.1l84.3,3.3v126.6c0,19.6-3.1,38.6-9.2,56.5C649.7,186.1,648.2,190.2,646.4,194.3z"
	/>
<path class="st0" d="M608.2,43.5l-33.7-1.3c-14.8-0.6-28.7-6.6-39.4-16.8L510.7,2c-1.4-1.3-3.1-2-4.9-2c-1.8,0-3.5,0.7-4.9,2
	l-24.4,23.4c-10.7,10.2-24.7,16.2-39.5,16.8l-33.7,1.4c-3.8,0.2-6.7,3.3-6.7,7v76.1c0,36.1,13.9,68.3,40.2,93.3
	c19.9,18.9,42.4,29.1,54,33.5l12.4,4.7c0.8,0.3,1.6,0.5,2.5,0.5c0.8,0,1.7-0.2,2.5-0.5l12.4-4.7c11.6-4.4,34-14.6,54-33.5
	c26.3-25,40.2-57.3,40.2-93.3V50.5C614.9,46.8,611.9,43.7,608.2,43.5z M569.8,214.8c-8.3,7.9-17.1,14.2-25.3,19.2
	c-1.2,0.7-2.3,1.4-3.5,2c-2.3,1.3-4.5,2.5-6.6,3.6c-1.1,0.5-2.1,1.1-3.1,1.6s-2,1-3,1.4c-3.9,1.8-7.3,3.2-10.1,4.2l-6.2,2.3
	l-6.2,2.3l-12.4-4.7c-11.1-4.2-32.6-13.9-51.6-32c-6.2-5.9-11.7-12.3-16.4-19c-1.2-1.7-2.3-3.4-3.4-5.1c-1.6-2.6-3.2-5.2-4.6-7.9
	c-2.4-4.5-4.4-9.1-6.2-13.8c-1.1-2.8-2-5.7-2.8-8.7c-0.8-2.9-1.6-5.9-2.2-8.9c-1.6-8-2.4-16.3-2.4-24.8V50.6l32.3-1.3l1.3-0.1
	c6.2-0.3,12.2-1.4,18-3.2c2.9-0.9,5.7-2.1,8.5-3.4c1.8-0.9,3.6-1.8,5.4-2.9c4.4-2.6,8.4-5.7,12.2-9.3L505.8,7l24.3,23.4
	c2.2,2.1,4.6,4.1,7.1,5.9c1.6,1.2,3.3,2.3,5.1,3.4c0.9,0.5,1.8,1,2.6,1.5c3.6,1.9,7.3,3.5,11.2,4.8c1,0.3,1.9,0.6,2.9,0.9
	c2,0.5,3.9,1,5.9,1.3c3,0.5,6.1,0.9,9.2,1l33.7,1.3v76.1c0,1.1,0,2.1,0,3.2c-0.1,2.1-0.2,4.2-0.3,6.3c-0.4,5.2-1.1,10.3-2.1,15.3
	c-0.4,2-0.9,4-1.4,6c-0.5,2-1.1,3.9-1.7,5.9c-1.2,3.9-2.6,7.7-4.2,11.4c-0.8,1.9-1.6,3.7-2.5,5.5c-1.3,2.7-2.8,5.4-4.4,8
	C585.6,197.8,578.4,206.7,569.8,214.8z"/>
<path class="st1" d="M505.8,60c-17.2,16.5-40,26.3-64,27.3v40.5c0,54.8,47.8,77.4,64,83.5c16.2-6.1,64-28.8,64-83.5V87.3
	C545.8,86.4,523,76.6,505.8,60z"/>
<image style="display:none;overflow:visible;" width="876" height="386" xlink:href="../Graphics/screenshot-hero.html"  transform="matrix(1.5034 0 0 1.5034 -61 -28)">
</image>
<rect x="227.2" y="179" class="st3" width="91.9" height="164.1"/>
<rect x="319.1" y="207.4" class="st4" width="91.9" height="164.1"/>
<path class="st1" d="M85.9,309c11.1,1,14.4,12.5,13.4,26.3c-1,13.8-3,30.2-15.2,29.2c-12.2-1.1-14.6-21.2-13.9-29
	C70.8,327.6,72.5,307.8,85.9,309"/>
<polygon class="st5" points="95.4,335.9 87.3,350.2 85.7,390.8 81.9,390.2 82.7,349.6 77.9,320.1 79.8,320.4 85.1,345.4 93,334.8 
	"/>
<polygon class="st5" points="80.1,331.4 86.1,323.5 87.4,325 81.6,335.8 "/>
<polygon class="st5" points="83.6,352 77.3,343.1 75,342.9 82.9,360.1 "/>
<path class="st6" d="M246.1,196.8c2.2,0,3.9-1.8,3.9-3.9c0-2.2-1.8-3.9-3.9-3.9c-2.2,0-3.9,1.8-3.9,3.9
	C242.2,195.1,243.9,196.8,246.1,196.8"/>
<path class="st6" d="M273.2,196.8c2.2,0,3.9-1.8,3.9-3.9c0-2.2-1.8-3.9-3.9-3.9s-3.9,1.8-3.9,3.9C269.3,195.1,271,196.8,273.2,196.8
	"/>
<path class="st6" d="M300.3,196.8c2.2,0,3.9-1.8,3.9-3.9c0-2.2-1.8-3.9-3.9-3.9c-2.2,0-3.9,1.8-3.9,3.9
	C296.4,195.1,298.1,196.8,300.3,196.8"/>
<path class="st6" d="M246.1,223.9c2.2,0,3.9-1.8,3.9-3.9c0-2.2-1.8-3.9-3.9-3.9c-2.2,0-3.9,1.8-3.9,3.9
	C242.2,222.2,243.9,223.9,246.1,223.9"/>
<path class="st6" d="M273.2,223.9c2.2,0,3.9-1.8,3.9-3.9c0-2.2-1.8-3.9-3.9-3.9s-3.9,1.8-3.9,3.9C269.3,222.2,271,223.9,273.2,223.9
	"/>
<path class="st6" d="M300.3,223.9c2.2,0,3.9-1.8,3.9-3.9c0-2.2-1.8-3.9-3.9-3.9c-2.2,0-3.9,1.8-3.9,3.9
	C296.4,222.2,298.1,223.9,300.3,223.9"/>
<path class="st6" d="M246.1,251c2.2,0,3.9-1.8,3.9-3.9c0-2.2-1.8-3.9-3.9-3.9c-2.2,0-3.9,1.8-3.9,3.9
	C242.2,249.2,243.9,251,246.1,251"/>
<path class="st6" d="M273.2,251c2.2,0,3.9-1.8,3.9-3.9c0-2.2-1.8-3.9-3.9-3.9s-3.9,1.8-3.9,3.9C269.3,249.2,271,251,273.2,251"/>
<path class="st1" d="M300.3,251c2.2,0,3.9-1.8,3.9-3.9c0-2.2-1.8-3.9-3.9-3.9c-2.2,0-3.9,1.8-3.9,3.9
	C296.4,249.2,298.1,251,300.3,251"/>
<path class="st1" d="M246.1,278.1c2.2,0,3.9-1.8,3.9-3.9c0-2.2-1.8-3.9-3.9-3.9c-2.2,0-3.9,1.8-3.9,3.9
	C242.2,276.3,243.9,278.1,246.1,278.1"/>
<path class="st6" d="M273.2,278.1c2.2,0,3.9-1.8,3.9-3.9c0-2.2-1.8-3.9-3.9-3.9s-3.9,1.8-3.9,3.9C269.3,276.3,271,278.1,273.2,278.1
	"/>
<path class="st1" d="M300.3,278.1c2.2,0,3.9-1.8,3.9-3.9c0-2.2-1.8-3.9-3.9-3.9c-2.2,0-3.9,1.8-3.9,3.9
	C296.4,276.3,298.1,278.1,300.3,278.1"/>
<path class="st1" d="M246.1,305.2c2.2,0,3.9-1.8,3.9-3.9c0-2.2-1.8-3.9-3.9-3.9c-2.2,0-3.9,1.8-3.9,3.9
	C242.2,303.4,243.9,305.2,246.1,305.2"/>
<path class="st1" d="M273.2,305.2c2.2,0,3.9-1.8,3.9-3.9c0-2.2-1.8-3.9-3.9-3.9s-3.9,1.8-3.9,3.9C269.3,303.4,271,305.2,273.2,305.2
	"/>
<path class="st1" d="M300.3,305.2c2.2,0,3.9-1.8,3.9-3.9c0-2.2-1.8-3.9-3.9-3.9c-2.2,0-3.9,1.8-3.9,3.9
	C296.4,303.4,298.1,305.2,300.3,305.2"/>
<rect x="326.2" y="218.4" class="st7" width="6.1" height="118.5"/>
<rect x="350.1" y="218.4" class="st7" width="6.1" height="118.5"/>
<rect x="374" y="218.4" class="st7" width="6.1" height="118.5"/>
<rect x="397.9" y="218.4" class="st7" width="6.1" height="118.5"/>
<rect x="173.3" y="299.8" class="st4" width="107.9" height="93.5"/>
<rect x="405" y="265.2" class="st8" width="86" height="118.6"/>
<polygon class="st9" points="425.5,230.8 405,265.2 491,265.2 470.4,230.8 "/>
<rect x="421" y="277.6" class="st10" width="6.1" height="21.9"/>
<rect x="444.9" y="277.6" class="st10" width="6.1" height="21.9"/>
<rect x="468.8" y="277.6" class="st10" width="6.1" height="21.9"/>
<rect x="421" y="317.3" class="st10" width="6.1" height="21.9"/>
<rect x="444.9" y="317.3" class="st10" width="6.1" height="21.9"/>
<rect x="468.8" y="317.3" class="st10" width="6.1" height="21.9"/>
<rect x="481" y="289.5" class="st1" width="76.7" height="103.8"/>
<rect x="367.5" y="329.4" class="st11" width="113.5" height="63.9"/>
<path class="st5" d="M481,331.8v-19.9H373.1v19.9h0.1c0,0.2-0.1,0.4-0.1,0.7c0,5.9,4.8,10.6,10.6,10.6c5.9,0,10.6-4.8,10.6-10.6
	c0-0.2-0.1-0.4-0.1-0.7h0.5c0,0.2-0.1,0.4-0.1,0.7c0,5.9,4.8,10.6,10.6,10.6c5.9,0,10.6-4.8,10.6-10.6c0-0.2-0.1-0.4-0.1-0.7h0.5
	c0,0.2-0.1,0.4-0.1,0.7c0,5.9,4.8,10.6,10.6,10.6s10.6-4.8,10.6-10.6c0-0.2-0.1-0.4-0.1-0.7h0.5c0,0.2-0.1,0.4-0.1,0.7
	c0,5.9,4.8,10.6,10.6,10.6s10.6-4.8,10.6-10.6c0-0.2-0.1-0.4-0.1-0.7h0.4c0,5.9,4.8,10.6,10.6,10.6S481,337.7,481,331.8"/>
<rect x="281.1" y="243.2" class="st1" width="92.9" height="150.1"/>
<rect x="91.2" y="318.2" class="st8" width="86" height="75.1"/>
<polygon class="st12" points="110.8,289.5 91.2,318.2 173.3,318.2 153.6,289.5 "/>
<g>
	<rect x="294.6" y="330" class="st9" width="6.3" height="13.6"/>
	<rect x="324.4" y="330" class="st9" width="6.3" height="13.6"/>
	<rect x="294.6" y="367.2" class="st9" width="6.3" height="13.6"/>
	<g>
		<rect x="294.6" y="255.7" class="st9" width="6.3" height="13.6"/>
		<rect x="324.4" y="255.7" class="st9" width="6.3" height="13.6"/>
		<rect x="354.3" y="255.7" class="st9" width="6.3" height="13.6"/>
		<rect x="294.6" y="292.9" class="st9" width="6.3" height="13.6"/>
		<rect x="324.4" y="292.9" class="st9" width="6.3" height="13.6"/>
		<rect x="354.3" y="292.9" class="st9" width="6.3" height="13.6"/>
		<rect x="354.3" y="330" class="st9" width="6.3" height="13.6"/>
		<rect x="324.4" y="367.2" class="st9" width="6.3" height="13.6"/>
	</g>
	<rect x="354.3" y="367.2" class="st9" width="6.3" height="13.6"/>
</g>
<rect x="215.5" y="371.2" class="st10" width="23.3" height="22.1"/>
<rect x="491.1" y="307.9" class="st9" width="56.5" height="7.9"/>
<rect x="491.1" y="332.9" class="st9" width="56.5" height="7.9"/>
<rect x="491.1" y="357.9" class="st9" width="56.5" height="7.9"/>
<rect x="414.1" y="355.8" class="st5" width="25.8" height="42.9"/>
<path class="st12" d="M106.3,335.7c2.8,0,5.1-2.3,5.1-5.1c0-2.8-2.3-5.1-5.1-5.1s-5.1,2.3-5.1,5.1
	C101.2,333.4,103.5,335.7,106.3,335.7"/>
<path class="st12" d="M132.2,335.7c2.8,0,5.1-2.3,5.1-5.1c0-2.8-2.3-5.1-5.1-5.1c-2.8,0-5.1,2.3-5.1,5.1
	C127.1,333.4,129.4,335.7,132.2,335.7"/>
<path class="st12" d="M158.2,335.7c2.8,0,5.1-2.3,5.1-5.1c0-2.8-2.3-5.1-5.1-5.1c-2.8,0-5.1,2.3-5.1,5.1
	C153.1,333.4,155.3,335.7,158.2,335.7"/>
<path class="st12" d="M106.3,357.6c2.8,0,5.1-2.3,5.1-5.1c0-2.8-2.3-5.1-5.1-5.1s-5.1,2.3-5.1,5.1
	C101.2,355.4,103.5,357.6,106.3,357.6"/>
<path class="st12" d="M132.2,357.6c2.8,0,5.1-2.3,5.1-5.1c0-2.8-2.3-5.1-5.1-5.1c-2.8,0-5.1,2.3-5.1,5.1
	C127.1,355.4,129.4,357.6,132.2,357.6"/>
<path class="st12" d="M158.2,357.6c2.8,0,5.1-2.3,5.1-5.1c0-2.8-2.3-5.1-5.1-5.1c-2.8,0-5.1,2.3-5.1,5.1
	C153.1,355.4,155.3,357.6,158.2,357.6"/>
<path class="st12" d="M106.3,379.6c2.8,0,5.1-2.3,5.1-5.1c0-2.8-2.3-5.1-5.1-5.1s-5.1,2.3-5.1,5.1
	C101.2,377.3,103.5,379.6,106.3,379.6"/>
<path class="st12" d="M132.2,379.6c2.8,0,5.1-2.3,5.1-5.1c0-2.8-2.3-5.1-5.1-5.1c-2.8,0-5.1,2.3-5.1,5.1
	C127.1,377.3,129.4,379.6,132.2,379.6"/>
<path class="st12" d="M158.2,379.6c2.8,0,5.1-2.3,5.1-5.1c0-2.8-2.3-5.1-5.1-5.1c-2.8,0-5.1,2.3-5.1,5.1
	C153.1,377.3,155.3,379.6,158.2,379.6"/>
<polygon class="st7" points="281.5,299.8 227.2,245.6 172.9,299.8 "/>
<path class="st1" d="M578.4,309.2c-11.3,0-15.8,11.4-16,25.5c-0.2,14.1,0.4,31,12.9,31c12.5,0,16.8-20.2,16.8-28.3
	C592.1,329.4,592.1,309.2,578.4,309.2"/>
<polygon class="st5" points="566.4,335.7 573.4,351 571.7,388.3 575.6,388.1 578,350.7 585.5,321.1 583.6,321.3 576,346.3 
	568.9,334.7 "/>
<polygon class="st5" points="582.3,332.5 576.9,323.9 575.4,325.3 580.4,336.8 "/>
<polygon class="st5" points="576.9,353.1 584.1,344.6 586.5,344.6 576.9,361.4 "/>
<path class="st7" d="M552.6,325.8c9.2,0,12.8,9.3,13,20.7c0.2,11.4-0.3,25.1-10.4,25.1c-10.1,0-13.6-16.4-13.6-22.9
	C541.6,342.2,541.6,325.8,552.6,325.8"/>
<polygon class="st4" points="562.4,347.2 556.8,359.6 558.1,389.9 554.9,389.7 553,359.4 546.9,335.5 548.5,335.6 554.6,355.8 
	560.3,346.5 "/>
<polygon class="st4" points="549.5,344.6 553.9,337.7 555.1,338.8 551.1,348.2 "/>
<polygon class="st4" points="553.9,361.4 548.1,354.5 546.2,354.5 553.9,368 "/>
<path class="st1" d="M170.7,320.8c-9.9,1.4-12.4,11.9-10.8,24.3c1.5,12.4,4.1,27,15.1,25.5c10.9-1.5,12.2-19.7,11.2-26.7
	C185.2,336.8,182.7,319.2,170.7,320.8"/>
<polygon class="st5" points="163.5,345.5 171.4,358 174.5,390.8 177.9,390.1 175.5,357.2 178.4,330.4 176.7,330.8 173.1,353.5 
	165.6,344.3 "/>
<polygon class="st5" points="177,340.7 171.2,333.9 170.1,335.3 175.8,344.7 "/>
<polygon class="st5" points="174.8,359.4 180,351.1 182.1,350.8 175.8,366.6 "/>
<rect x="194.6" y="318.2" class="st7" width="9.9" height="12.7"/>
<rect x="222.3" y="318.2" class="st7" width="9.9" height="12.7"/>
<rect x="249.9" y="318.2" class="st7" width="9.9" height="12.7"/>
<rect x="194.6" y="348.7" class="st7" width="9.9" height="12.7"/>
<rect x="222.3" y="348.7" class="st7" width="9.9" height="12.7"/>
<rect x="249.9" y="348.7" class="st7" width="9.9" height="12.7"/>
<rect y="384" class="st1" width="1200" height="83"/>
<rect x="610.8" y="384.9" transform="matrix(0.242 -0.9703 0.9703 0.242 91.9938 891.3621)" class="st7" width="11.5" height="3.7"/>
<rect x="614.6" y="381.7" transform="matrix(0.9848 -0.1737 0.1737 0.9848 -57.9303 112.9736)" class="st7" width="3.7" height="11.5"/>
<path class="st13" d="M616.6,366c0,0-3.2,1-4.4,8.5c-1.2,7.5,2.3,8.7,4.2,8.6c0.9,0,4.3,0,4.3,0S621,366,616.6,366"/>
<path class="st9" d="M617.2,366.7c2,0,3.6-1.6,3.6-3.6c0-2-1.6-3.6-3.6-3.6s-3.6,1.6-3.6,3.6C613.6,365.1,615.2,366.7,617.2,366.7"
	/>
<rect x="626.8" y="382.4" class="st9" width="3.7" height="10.8"/>
<path class="st1" d="M628.9,363.1c0,0-3.2,1-4.4,8.5c-1.2,7.5,0.5,10.8,2.3,10.7c0.9,0,4.8,0,4.8,0S633.2,363.1,628.9,363.1"/>
<path class="st14" d="M629,363.1c2,0,3.6-1.6,3.6-3.6c0-2-1.6-3.6-3.6-3.6c-2,0-3.6,1.6-3.6,3.6C625.4,361.5,627,363.1,629,363.1"/>
<rect x="636.4" y="391" class="st9" width="3.7" height="5"/>
<path class="st15" d="M638.4,379.4c0,0-3.2,0.6-4.4,5.1c-1.2,4.5,0.5,6.5,2.3,6.5c0.9,0,4.8,0,4.8,0S642.8,379.4,638.4,379.4"/>
<path class="st5" d="M638.6,380.3c2,0,3.6-1.6,3.6-3.6c0-2-1.6-3.6-3.6-3.6s-3.6,1.6-3.6,3.6C635,378.7,636.6,380.3,638.6,380.3"/>
<rect x="805.6" y="396.3" class="st13" width="3.5" height="6.7"/>
<path class="st4" d="M807.5,377.5c0,0-3,0.9-4.1,8c-1.1,7-2.2,14.1-0.4,14c0.9,0,8.7,0.1,8.7,0.1S811.6,377.5,807.5,377.5"/>
<path class="st1" d="M808,378.1c1.8,0,3.3-1.5,3.3-3.3c0-1.8-1.5-3.3-3.3-3.3s-3.3,1.5-3.3,3.3C804.7,376.6,806.2,378.1,808,378.1"
	/>
<rect x="833.4" y="386.3" transform="matrix(0.9272 -0.3746 0.3746 0.9272 -86.067 341.4144)" class="st9" width="3.5" height="11.7"/>
<rect x="817" y="392.8" class="st7" width="3.5" height="10.1"/>
<path class="st16" d="M818.9,374.8c0,0-3,0.9-4.1,8c-1.1,7,0.4,10.1,2.2,10c0.9,0,4.5,0,4.5,0S823,374.8,818.9,374.8"/>
<path class="st14" d="M819,374.8c1.8,0,3.3-1.5,3.3-3.3c0-1.8-1.5-3.3-3.3-3.3s-3.3,1.5-3.3,3.3C815.7,373.3,817.2,374.8,819,374.8"
	/>
<rect x="825.1" y="391.3" transform="matrix(0.2419 -0.9703 0.9703 0.2419 248.5686 1104.2241)" class="st9" width="11.7" height="3.5"/>
<path class="st13" d="M833.8,373.5c0,0-3,0.9-4.1,8c-1.1,7,0.4,8.7,2.2,8.6c0.9,0,5.5-1.3,5.5-1.3S837.9,373.5,833.8,373.5"/>
<path class="st16" d="M834.3,374.1c1.8,0,3.3-1.5,3.3-3.3c0-1.8-1.5-3.3-3.3-3.3s-3.3,1.5-3.3,3.3
	C831,372.6,832.5,374.1,834.3,374.1"/>
<g>
	<path class="st13" d="M1025,321.6c-10.8,0-15,10.9-15.2,24.3c-0.2,13.4,0.4,29.5,12.3,29.5c11.9,0,16-19.3,16-26.9
		C1038,340.9,1038,321.6,1025,321.6"/>
	<polygon class="st5" points="1029.9,333.2 1022.7,356.9 1015.9,345.9 1013.5,346.8 1020.1,361.4 1018.5,397 1022.3,396.8 
		1024.6,361.2 1031.7,333 	"/>
	<polygon class="st5" points="1028.7,343.8 1023.5,335.6 1022.1,337 1026.9,347.9 	"/>
	<polygon class="st5" points="1023.5,363.4 1030.4,355.4 1032.6,355.4 1023.5,371.3 	"/>
	<path class="st7" d="M1003.1,335.9c8.7,0,12.2,8.8,12.3,19.7c0.2,10.9-0.3,23.9-9.9,23.9s-12.9-15.6-12.9-21.8
		C992.5,351.5,992.5,335.9,1003.1,335.9"/>
	<polygon class="st4" points="1003.4,368 1005.3,396.8 1008.3,397 1007,368.2 1012.4,356.4 1010.4,355.6 1005,364.5 999.1,345.3 
		997.6,345.2 	"/>
	<polygon class="st4" points="1000.1,353.9 1004.2,347.3 1005.4,348.4 1001.6,357.3 	"/>
	<polygon class="st4" points="1004.3,369.8 998.7,363.3 996.9,363.3 1004.3,376.2 	"/>
	<path class="st9" d="M1166.3,396.9c-10.2-2.4-15.8-14.7-20.5-16c-4.4-1.3-40.9-3.1-51.8-1.7c-1,0.1-1.9,0.6-2.5,1.4l-12.4,16.8
		c-0.6,0.8-1.5,1.3-2.5,1.4c-6.5,0.8-26.7,3-30.3,5.9c-3.3,2.7-3.3,12.1-3.3,15.8c0,0.9,8.3,1.6,20.8,2c1.6,0.1,3.2-0.9,3.7-2.5
		c1.3-4.1,5.2-7.1,9.8-7.1c4.7,0,8.6,3.1,9.8,7.4c0.5,1.6,1.8,2.7,3.5,2.7c14.7,0.1,30.6,0,44.5-0.3c1.6,0,2.9-1.1,3.4-2.7
		c1.3-4.2,5.2-7.2,9.8-7.2c4.4,0,8.2,2.8,9.6,6.7c0.6,1.5,2.1,2.4,3.6,2.3c6.7-0.4,10.9-0.8,11.3-1.3
		C1175.1,416.9,1174.7,398.9,1166.3,396.9"/>
	<path class="st10" d="M1085.6,422.8c0,4.5-3.6,8.1-8.1,8.1c-4.5,0-8.1-3.6-8.1-8.1s3.6-8.1,8.1-8.1
		C1082,414.7,1085.6,418.3,1085.6,422.8"/>
	<path class="st10" d="M1156.3,422.8c0,4.5-3.6,8.1-8.1,8.1c-4.5,0-8.1-3.6-8.1-8.1s3.6-8.1,8.1-8.1
		C1152.7,414.7,1156.3,418.3,1156.3,422.8"/>
	<polygon class="st6" points="1094.1,381.6 1083.7,397 1114.6,396.8 1114.6,381.6 	"/>
	<path class="st6" d="M1119.4,381.6l1.4,15.4h36.7c0,0-10.1-12.8-13.4-13.8C1140.9,382.3,1119.4,381.6,1119.4,381.6"/>
	<path class="st13" d="M1053.5,409.3h-9.6c-0.4,1.6-0.6,3.5-0.8,5.2c0.2,0.1,0.5,0.1,0.7,0.1h9.6c1.5,0,2.7-1.2,2.7-2.7
		C1056.2,410.5,1055,409.3,1053.5,409.3"/>
	<path class="st7" d="M1053.5,409.3h-1.2v5.3h1.2c1.5,0,2.7-1.2,2.7-2.7C1056.2,410.5,1055,409.3,1053.5,409.3"/>
	<path class="st13" d="M1081.2,422.8c0,2-1.6,3.6-3.6,3.6s-3.6-1.6-3.6-3.6s1.6-3.6,3.6-3.6S1081.2,420.8,1081.2,422.8"/>
	<path class="st13" d="M1151.8,422.8c0,2-1.6,3.6-3.6,3.6s-3.6-1.6-3.6-3.6s1.6-3.6,3.6-3.6S1151.8,420.8,1151.8,422.8"/>
	<path class="st9" d="M1096,389.9c-0.2,0-0.4-0.1-0.5-0.3c-0.2-0.3,0-0.7,0.2-0.8l8.3-4.4c0.3-0.2,0.7,0,0.8,0.2
		c0.2,0.3,0,0.7-0.2,0.8l-8.3,4.4C1096.2,389.9,1096.1,389.9,1096,389.9"/>
	<path class="st9" d="M1100.2,394.3c-0.2,0-0.4-0.1-0.5-0.3c-0.2-0.3,0-0.7,0.2-0.8l8.3-4.4c0.3-0.2,0.7,0,0.8,0.2
		c0.2,0.3,0,0.7-0.2,0.8l-8.3,4.4C1100.4,394.3,1100.3,394.3,1100.2,394.3"/>
	<path class="st9" d="M1128.9,389.9c-0.2,0-0.4-0.1-0.5-0.3c-0.2-0.3,0-0.7,0.2-0.8l8.3-4.4c0.3-0.2,0.7,0,0.8,0.2
		c0.2,0.3,0,0.7-0.2,0.8l-8.3,4.4C1129.1,389.9,1129,389.9,1128.9,389.9"/>
	<path class="st9" d="M1133.1,394.3c-0.2,0-0.4-0.1-0.5-0.3c-0.2-0.3,0-0.7,0.2-0.8l8.3-4.4c0.3-0.2,0.7,0,0.8,0.2
		c0.2,0.3,0,0.7-0.2,0.8l-8.3,4.4C1133.3,394.3,1133.2,394.3,1133.1,394.3"/>
</g>
<g>
	<path class="st9" d="M42.5,353.6c-11.7,0-16.2,11.7-16.4,26.3c-0.2,14.5,0.4,31.9,13.3,31.9c12.9,0,17.2-20.8,17.2-29.1
		C56.5,374.4,56.5,353.6,42.5,353.6"/>
	<polygon class="st5" points="47.8,366.1 40,391.7 32.7,379.9 30.1,380.9 37.2,396.6 35.5,435 39.5,434.8 42,396.3 49.7,365.9 	"/>
	<polygon class="st5" points="46.4,377.5 40.9,368.7 39.4,370.2 44.5,382 	"/>
	<polygon class="st5" points="40.9,398.8 48.3,390.1 50.7,390.1 40.9,407.3 	"/>
</g>
<g>
	<rect x="78.1" y="438.4" class="st13" width="4" height="7.6"/>
	<path class="st7" d="M80.3,416.8c0,0-3.4,1.1-4.7,9.2c-1.3,8-2.5,16.2-0.5,16.1c1,0,9.9,0.1,9.9,0.1S85,416.8,80.3,416.8"/>
	<path class="st9" d="M80.9,417.6c2.1,0,3.8-1.7,3.8-3.8c0-2.1-1.7-3.8-3.8-3.8s-3.8,1.7-3.8,3.8C77.1,415.9,78.8,417.6,80.9,417.6"
		/>
	<rect x="91.2" y="434.4" class="st9" width="4" height="11.5"/>
	<path class="st16" d="M93.4,413.7c0,0-3.4,1.1-4.7,9.2c-1.3,8,0.5,11.6,2.5,11.5c1,0,5.1,0,5.1,0S98.1,413.7,93.4,413.7"/>
	<path class="st14" d="M93.5,413.7c2.1,0,3.8-1.7,3.8-3.8c0-2.1-1.7-3.8-3.8-3.8c-2.1,0-3.8,1.7-3.8,3.8
		C89.7,412,91.4,413.7,93.5,413.7"/>
</g>
</svg>
