<?xml version="1.0" encoding="utf-8"?>
<!-- Generator: Adobe Illustrator 23.0.3, SVG Export Plug-In . SVG Version: 6.00 Build 0)  -->
<svg version="1.1" id="Layer_1" xmlns="http://www.w3.org/2000/svg" xmlns:xlink="http://www.w3.org/1999/xlink" x="0px" y="0px"
	 viewBox="0 0 1080 938" style="enable-background:new 0 0 1080 938;" xml:space="preserve">
<style type="text/css">
	.st0{fill:#7ED3F3;}
	.st1{fill:#244974;}
	.st2{fill:#F5A800;}
</style>
<title>Report-Fraud-Illos</title>
<path class="st0" d="M517.1,559.7L511,553c-32.1-35.1-49.1-76.7-49.1-120.4c0-111.8,112.6-202.8,251.1-202.8s251.1,91,251.1,202.8
	S851.5,635.4,713,635.4c-29.9,0.1-59.7-4.3-88.4-13l-3.8-1.1l-152.1,40L517.1,559.7z"/>
<path class="st1" d="M414.8,640.3l4.1-4.5c21.5-23.5,32.9-51.3,32.9-80.5c0-74.8-75.3-135.6-167.9-135.6s-167.9,60.8-167.9,135.6
	S191.2,691,283.8,691c20,0,39.9-2.9,59.1-8.7l2.5-0.8l101.7,26.7L414.8,640.3z"/>
<path class="st2" d="M269.7,568c0-22.2,29.3-24.6,29.3-40.1c0-7.1-5.5-13.1-17.3-13.1c-11.1,0-19.1,5.1-25.3,12.8l-12.2-13.7
	c9.3-11.3,23.3-18,39.7-18c22.9,0,37,12.2,37,28.6c0,26.9-32.6,29.1-32.6,45.5c0.1,3.2,1.6,6.1,4,8.2l-16,5.3
	C272,579.5,269.6,573.9,269.7,568z M270,608.4c0-7,5.7-12.8,12.8-12.8s12.8,5.7,12.8,12.8s-5.7,12.8-12.8,12.8l0,0
	C275.7,621.1,270.1,615.4,270,608.4L270,608.4z"/>
<g>
	<g>
		<path class="st1" d="M648,356h-70c-5.5,0-10,4.5-10,10s4.5,10,10,10h70V356z"/>
		<path class="st1" d="M848,356H672v20h176c5.5,0,10-4.5,10-10S853.5,356,848,356z"/>
	</g>
	<g>
		<path class="st1" d="M792,409.8H543c-5.5,0-10,4.5-10,10s4.5,10,10,10h249V409.8z"/>
		<path class="st1" d="M883,409.8h-67v20h67c5.5,0,10-4.5,10-10S888.5,409.8,883,409.8z"/>
	</g>
	<g>
		<path class="st1" d="M683,463.5H543c-5.5,0-10,4.5-10,10c0,5.5,4.5,10,10,10h140V463.5z"/>
		<path class="st1" d="M883,463.5H707v20h176c5.5,0,10-4.5,10-10C893,468,888.5,463.5,883,463.5z"/>
	</g>
</g>
</svg>
