<?xml version="1.0" encoding="UTF-8" standalone="no"?>
<svg
   xmlns:dc="http://purl.org/dc/elements/1.1/"
   xmlns:cc="http://creativecommons.org/ns#"
   xmlns:rdf="http://www.w3.org/1999/02/22-rdf-syntax-ns#"
   xmlns:svg="http://www.w3.org/2000/svg"
   xmlns="http://www.w3.org/2000/svg"
   xmlns:xlink="http://www.w3.org/1999/xlink"
   xmlns:sodipodi="http://sodipodi.sourceforge.net/DTD/sodipodi-0.dtd"
   xmlns:inkscape="http://www.inkscape.org/namespaces/inkscape"
   inkscape:version="1.0 (4035a4fb49, 2020-05-01)"
   height="646"
   width="522"
   sodipodi:docname="To-Do2.svg"
   xml:space="preserve"
   viewBox="0 0 522 646"
   y="0px"
   x="0px"
   id="Layer_1"
   version="1.1"><metadata
   id="metadata39"><rdf:RDF><cc:Work
       rdf:about=""><dc:format>image/svg+xml</dc:format><dc:type
         rdf:resource="http://purl.org/dc/dcmitype/StillImage" /><dc:title>Report-Fraud-Illos</dc:title></cc:Work></rdf:RDF></metadata><defs
   id="defs37"><clipPath
     id="clipPath48"
     clipPathUnits="userSpaceOnUse"><use
       height="100%"
       width="100%"
       id="use50"
       xlink:href="#g44"
       y="0"
       x="0" /></clipPath></defs><sodipodi:namedview
   inkscape:current-layer="Layer_1"
   inkscape:window-maximized="1"
   inkscape:window-y="-9"
   inkscape:window-x="-9"
   inkscape:cy="355.05726"
   inkscape:cx="289"
   inkscape:zoom="0.88486141"
   fit-margin-bottom="0"
   fit-margin-right="0"
   fit-margin-left="0"
   fit-margin-top="0"
   showgrid="false"
   id="namedview35"
   inkscape:window-height="1001"
   inkscape:window-width="1920"
   inkscape:pageshadow="2"
   inkscape:pageopacity="0"
   guidetolerance="10"
   gridtolerance="10"
   objecttolerance="10"
   borderopacity="1"
   bordercolor="#666666"
   pagecolor="#ffffff" />
<style
   id="style2"
   type="text/css">
	.st0{fill:#7ED3F3;}
	.st1{fill:#244974;}
	.st2{enable-background:new    ;}
</style>
<title
   id="title4">Report-Fraud-Illos</title>
<g
   transform="translate(-251,-146)"
   clip-path="url(#clipPath48)"
   id="g46" />







<g
   id="g205"><g
     transform="translate(-251,-146)"
     inkscape:label="Clip"
     id="g44"><path
       id="rect6"
       style="fill:#7ed3f3"
       d="M 251,146 H 773 V 792 H 251 Z"
       class="st0" /></g><path
     class="st1"
     d="m 87.5,502.5 v 0 c 18.2,0 33,14.8 33,33 v 0 c 0,18.2 -14.8,33 -33,33 v 0 c -18.2,0 -33,-14.8 -33,-33 v 0 c 0,-18.3 14.8,-33 33,-33 z"
     id="path8" /><path
     class="st1"
     d="m 87.5,215.5 v 0 c 18.2,0 33,14.8 33,33 v 0 c 0,18.2 -14.8,33 -33,33 v 0 c -18.2,0 -33,-14.8 -33,-33 v 0 c 0,-18.3 14.8,-33 33,-33 z"
     id="path10" /><rect
     x="148.5"
     y="215.5"
     class="st1"
     width="319"
     height="66"
     id="rect12" /><path
     class="st1"
     d="m 87.5,358.5 v 0 c 18.2,0 33,14.8 33,33 v 0 c 0,18.2 -14.8,33 -33,33 v 0 c -18.2,0 -33,-14.8 -33,-33 v 0 c 0,-18.3 14.8,-33 33,-33 z"
     id="path14" /><rect
     x="148.5"
     y="358.5"
     class="st1"
     width="319"
     height="66"
     id="rect16" /><rect
     x="148.5"
     y="502.5"
     class="st1"
     width="319"
     height="66"
     id="rect18" /><g
     class="st2"
     id="g22"
     transform="translate(-251,-146)">
	<path
   class="st1"
   d="M 330.8,283.6 V 237 H 314 v -13.5 h 49 V 237 h -16.7 v 46.5 h -15.5 z"
   id="path20" />
</g><g
     class="st2"
     id="g32"
     transform="translate(-251,-146)">
	<path
   class="st1"
   d="m 368.9,253.6 c 0,-18.3 13.8,-31 32.1,-31 18.4,0 32,12.8 32,31 0,18.2 -13.7,31 -32,31 -18.3,0 -32.1,-12.7 -32.1,-31 z m 48.5,0 c 0,-9.8 -6.4,-17.4 -16.3,-17.4 -10,0 -16.4,7.6 -16.4,17.4 0,9.7 6.4,17.4 16.4,17.4 9.9,0 16.3,-7.7 16.3,-17.4 z"
   id="path24" />
	<path
   class="st1"
   d="m 471.2,283.6 v -60 h 25.2 c 18.9,0 32.5,11.3 32.5,30 0,18.6 -13.6,30.1 -32.4,30.1 H 471.2 Z M 513,253.5 c 0,-9.3 -5.6,-16.5 -16.6,-16.5 h -9.8 v 33 h 9.7 c 10.6,0.1 16.7,-7.6 16.7,-16.5 z"
   id="path26" />
	<path
   class="st1"
   d="m 537.1,253.6 c 0,-18.3 13.8,-31 32.1,-31 18.3,0 32,12.8 32,31 0,18.2 -13.7,31 -32,31 -18.3,0 -32.1,-12.7 -32.1,-31 z m 48.5,0 c 0,-9.8 -6.4,-17.4 -16.3,-17.4 -10,0 -16.4,7.6 -16.4,17.4 0,9.7 6.4,17.4 16.4,17.4 9.9,0 16.3,-7.7 16.3,-17.4 z"
   id="path28" />
	<path
   class="st1"
   d="m 610.9,247.9 c 0,-4.6 3.9,-8.5 8.5,-8.5 4.6,0 8.5,3.9 8.5,8.5 0,4.6 -3.9,8.5 -8.5,8.5 -4.6,0 -8.5,-3.9 -8.5,-8.5 z m 0,28.3 c 0,-4.6 3.9,-8.5 8.5,-8.5 4.6,0 8.5,3.9 8.5,8.5 0,4.6 -3.9,8.5 -8.5,8.5 -4.6,0 -8.5,-3.9 -8.5,-8.5 z"
   id="path30" />
</g></g>
</svg>
