<?xml version="1.0" encoding="utf-8"?>
<!-- Generator: Adobe Illustrator 23.0.3, SVG Export Plug-In . SVG Version: 6.00 Build 0)  -->
<svg version="1.1" id="Layer_1" xmlns="http://www.w3.org/2000/svg" xmlns:xlink="http://www.w3.org/1999/xlink" x="0px" y="0px"
	 viewBox="0 0 1080 938" style="enable-background:new 0 0 1080 938;" xml:space="preserve">
<style type="text/css">
	.st0{fill:#7ED3F3;}
	.st1{fill:#244974;}
	.st2{enable-background:new    ;}
</style>
<title>Report-Fraud-Illos</title>
<rect x="251" y="146" class="st0" width="522" height="646"/>
<path class="st1" d="M338.5,648.5L338.5,648.5c18.2,0,33,14.8,33,33l0,0c0,18.2-14.8,33-33,33l0,0c-18.2,0-33-14.8-33-33l0,0
	C305.5,663.2,320.3,648.5,338.5,648.5z"/>
<path class="st1" d="M338.5,361.5L338.5,361.5c18.2,0,33,14.8,33,33l0,0c0,18.2-14.8,33-33,33l0,0c-18.2,0-33-14.8-33-33l0,0
	C305.5,376.2,320.3,361.5,338.5,361.5z"/>
<rect x="399.5" y="361.5" class="st1" width="319" height="66"/>
<path class="st1" d="M338.5,504.5L338.5,504.5c18.2,0,33,14.8,33,33l0,0c0,18.2-14.8,33-33,33l0,0c-18.2,0-33-14.8-33-33l0,0
	C305.5,519.2,320.3,504.5,338.5,504.5z"/>
<rect x="399.5" y="504.5" class="st1" width="319" height="66"/>
<rect x="399.5" y="648.5" class="st1" width="319" height="66"/>
<g class="st2">
	<path class="st1" d="M330.8,283.6V237H314v-13.5h49V237h-16.7v46.5H330.8z"/>
</g>
<g class="st2">
	<path class="st1" d="M368.9,253.6c0-18.3,13.8-31,32.1-31c18.4,0,32,12.8,32,31s-13.7,31-32,31
		C382.7,284.6,368.9,271.9,368.9,253.6z M417.4,253.6c0-9.8-6.4-17.4-16.3-17.4c-10,0-16.4,7.6-16.4,17.4c0,9.7,6.4,17.4,16.4,17.4
		C411,271,417.4,263.3,417.4,253.6z"/>
	<path class="st1" d="M471.2,283.6v-60h25.2c18.9,0,32.5,11.3,32.5,30c0,18.6-13.6,30.1-32.4,30.1H471.2z M513,253.5
		c0-9.3-5.6-16.5-16.6-16.5h-9.8v33h9.7C506.9,270.1,513,262.4,513,253.5z"/>
	<path class="st1" d="M537.1,253.6c0-18.3,13.8-31,32.1-31s32,12.8,32,31s-13.7,31-32,31S537.1,271.9,537.1,253.6z M585.6,253.6
		c0-9.8-6.4-17.4-16.3-17.4c-10,0-16.4,7.6-16.4,17.4c0,9.7,6.4,17.4,16.4,17.4C579.2,271,585.6,263.3,585.6,253.6z"/>
	<path class="st1" d="M610.9,247.9c0-4.6,3.9-8.5,8.5-8.5s8.5,3.9,8.5,8.5s-3.9,8.5-8.5,8.5S610.9,252.5,610.9,247.9z M610.9,276.2
		c0-4.6,3.9-8.5,8.5-8.5s8.5,3.9,8.5,8.5s-3.9,8.5-8.5,8.5S610.9,280.8,610.9,276.2z"/>
</g>
</svg>
